<?xml version="1.0" encoding="UTF-8" standalone="no"?>
<!-- Created with Inkscape (http://www.inkscape.org/) -->

<svg
   version="1.1"
   id="svg2"
   width="477.40701"
   height="115.193"
   viewBox="-2 -2 477.40701 115.193"
   sodipodi:docname="EVKMC 로고 및 영문.svg"
   inkscape:version="1.3.2 (091e20e, 2023-11-25, custom)"
   xmlns:inkscape="http://www.inkscape.org/namespaces/inkscape"
   xmlns:sodipodi="http://sodipodi.sourceforge.net/DTD/sodipodi-0.dtd"
   xmlns="http://www.w3.org/2000/svg"
   xmlns:svg="http://www.w3.org/2000/svg">
  <defs
     id="defs6">
    <clipPath
       clipPathUnits="userSpaceOnUse"
       id="clipPath24">
      <path
         d="M 0,841.89 H 595.276 V 0 H 0 Z"
         id="path22" />
    </clipPath>
  </defs>
  <sodipodi:namedview
     id="namedview4"
     pagecolor="#ffffff"
     bordercolor="#000000"
     borderopacity="0.25"
     inkscape:showpageshadow="2"
     inkscape:pageopacity="0.0"
     inkscape:pagecheckerboard="0"
     inkscape:deskcolor="#d1d1d1"
     inkscape:zoom="4.5833561"
     inkscape:cx="172.58096"
     inkscape:cy="65.999673"
     inkscape:window-width="3840"
     inkscape:window-height="2054"
     inkscape:window-x="-11"
     inkscape:window-y="-11"
     inkscape:window-maximized="1"
     inkscape:current-layer="g8" />
  <g
     id="g8"
     inkscape:groupmode="layer"
     inkscape:label="EVKMC 로고 및 영문"
     transform="matrix(1.3333333,0,0,-1.3333333,-207.92666,559.67199)">
    <g
       id="g10"
       transform="translate(355.0245,402.7022)">
      <path
         d="M 0,0 H 7.448 V -30.249 L 39.38,0 H 50.195 L 30.454,-18.721 50.195,-37.849 H 39.38 L 24.791,-24.026 10.202,-37.849 H 0 Z"
         style="fill:#5a5657;fill-opacity:1;fill-rule:nonzero;stroke:none"
         id="path12" />
    </g>
    <g
       id="g14"
       transform="translate(407.7183,402.7022)">
      <path
         d="M 0,0 H 10.763 L 25.098,-13.62 39.38,0 H 50.195 V -37.849 H 42.747 V -7.09 L 25.098,-23.822 7.448,-7.09 V -37.849 H 0 Z"
         style="fill:#5a5657;fill-opacity:1;fill-rule:nonzero;stroke:none"
         id="path16" />
    </g>
    <g
       id="g18"
       style="opacity:1">
      <g
         id="g20"
         clip-path="url(#clipPath24)">
        <g
           id="g26"
           transform="translate(460.4121,397.1423)">
          <path
             d="M 0,0 C 0,0.747 0.144,1.462 0.434,2.143 0.722,2.823 1.122,3.418 1.633,3.928 2.142,4.438 2.729,4.837 3.392,5.127 4.055,5.415 4.777,5.56 5.56,5.56 H 50.195 V -1.887 H 7.448 v -22.955 h 42.747 v -7.447 H 5.56 c -0.783,0 -1.505,0.143 -2.168,0.433 -0.663,0.288 -1.25,0.689 -1.759,1.199 -0.511,0.509 -0.911,1.097 -1.199,1.76 C 0.144,-28.235 0,-27.512 0,-26.73 Z"
             style="fill:#5a5657;fill-opacity:1;fill-rule:nonzero;stroke:none"
             id="path28" />
        </g>
        <g
           id="g30"
           transform="translate(250.2357,352.9641)">
          <path
             d="M 0,0 H 4.33 V -0.799 H 0.952 V -3.153 H 3.798 V -3.962 H 0.952 V -6.696 H 4.443 V -7.504 H 0 Z"
             style="fill:#5a5657;fill-opacity:1;fill-rule:nonzero;stroke:none"
             id="path32" />
        </g>
        <g
           id="g34"
           transform="translate(258.5256,346.5657)">
          <path
             d="m 0,0 v 7.044 h 0.931 v -7.106 c 0,-0.286 0.123,-0.399 0.267,-0.399 0.051,0 0.092,0 0.194,0.021 L 1.525,-1.157 C 1.392,-1.209 1.228,-1.239 0.983,-1.239 0.286,-1.239 0,-0.789 0,0"
             style="fill:#5a5657;fill-opacity:1;fill-rule:nonzero;stroke:none"
             id="path36" />
        </g>
        <g
           id="g38"
           transform="translate(267.273,348.6846)">
          <path
             d="M 0,0 C 0,1.126 -0.512,1.73 -1.382,1.73 -2.171,1.73 -2.867,1.095 -2.979,0 Z m -3.901,-0.451 c 0,1.802 1.218,2.929 2.509,2.929 1.412,0 2.211,-1.024 2.211,-2.611 0,-0.204 -0.02,-0.399 -0.041,-0.532 h -3.747 c 0.062,-1.188 0.788,-1.945 1.843,-1.945 0.542,0 0.982,0.163 1.392,0.44 l 0.338,-0.615 c -0.492,-0.317 -1.085,-0.573 -1.843,-0.573 -1.474,0 -2.662,1.075 -2.662,2.907"
             style="fill:#5a5657;fill-opacity:1;fill-rule:nonzero;stroke:none"
             id="path40" />
        </g>
        <g
           id="g42"
           transform="translate(271.3947,348.2338)">
          <path
             d="m 0,0 c 0,1.853 1.26,2.928 2.683,2.928 0.727,0 1.228,-0.307 1.628,-0.655 L 3.829,1.649 C 3.502,1.945 3.164,2.151 2.714,2.151 1.71,2.151 0.973,1.281 0.973,0 c 0,-1.279 0.696,-2.13 1.72,-2.13 0.512,0 0.962,0.236 1.31,0.554 L 4.403,-2.2 C 3.911,-2.651 3.276,-2.907 2.611,-2.907 1.137,-2.907 0,-1.843 0,0"
             style="fill:#5a5657;fill-opacity:1;fill-rule:nonzero;stroke:none"
             id="path44" />
        </g>
        <g
           id="g46"
           transform="translate(279.4282,347.1791)">
          <path
             d="M 0,0 V 3.083 H -0.83 V 3.789 L 0.041,3.84 0.153,5.396 H 0.931 V 3.84 H 2.436 V 3.083 H 0.931 V -0.02 c 0,-0.685 0.216,-1.075 0.86,-1.075 0.195,0 0.451,0.072 0.635,0.143 L 2.61,-1.648 C 2.293,-1.75 1.924,-1.852 1.587,-1.852 0.399,-1.852 0,-1.116 0,0"
             style="fill:#5a5657;fill-opacity:1;fill-rule:nonzero;stroke:none"
             id="path48" />
        </g>
        <g
           id="g50"
           transform="translate(285.4738,351.0186)">
          <path
             d="M 0,0 H 0.768 L 0.85,-1.013 h 0.031 c 0.389,0.707 0.952,1.156 1.576,1.156 0.247,0 0.421,-0.029 0.595,-0.122 L 2.878,-0.798 C 2.693,-0.726 2.56,-0.706 2.335,-0.706 1.874,-0.706 1.3,-1.033 0.932,-1.986 V -5.559 H 0 Z"
             style="fill:#5a5657;fill-opacity:1;fill-rule:nonzero;stroke:none"
             id="path52" />
        </g>
        <path
           d="m 291.796,351.019 h 0.932 v -5.559 h -0.932 z m -0.174,1.751 c 0,0.378 0.276,0.604 0.645,0.604 0.369,0 0.645,-0.226 0.645,-0.604 0,-0.349 -0.276,-0.605 -0.645,-0.605 -0.369,0 -0.645,0.256 -0.645,0.605"
           style="fill:#5a5657;fill-opacity:1;fill-rule:nonzero;stroke:none"
           id="path54" />
        <g
           id="g56"
           transform="translate(296.5402,348.2338)">
          <path
             d="m 0,0 c 0,1.853 1.26,2.928 2.683,2.928 0.727,0 1.228,-0.307 1.628,-0.655 L 3.829,1.649 C 3.502,1.945 3.164,2.151 2.713,2.151 1.71,2.151 0.973,1.281 0.973,0 c 0,-1.279 0.696,-2.13 1.72,-2.13 0.512,0 0.962,0.236 1.31,0.554 L 4.403,-2.2 C 3.911,-2.651 3.276,-2.907 2.611,-2.907 1.137,-2.907 0,-1.843 0,0"
             style="fill:#5a5657;fill-opacity:1;fill-rule:nonzero;stroke:none"
             id="path58" />
        </g>
        <g
           id="g60"
           transform="translate(308.232,352.9641)">
          <path
             d="m 0,0 h 0.993 l 1.218,-4.064 c 0.267,-0.88 0.441,-1.598 0.728,-2.478 H 2.98 c 0.276,0.88 0.46,1.598 0.726,2.478 L 4.914,0 H 5.877 L 3.492,-7.504 H 2.396 Z"
             style="fill:#5a5657;fill-opacity:1;fill-rule:nonzero;stroke:none"
             id="path62" />
        </g>
        <g
           id="g64"
           transform="translate(320.7095,348.6846)">
          <path
             d="M 0,0 C 0,1.126 -0.512,1.73 -1.382,1.73 -2.17,1.73 -2.867,1.095 -2.979,0 Z m -3.901,-0.451 c 0,1.802 1.218,2.929 2.508,2.929 1.413,0 2.212,-1.024 2.212,-2.611 0,-0.204 -0.02,-0.399 -0.041,-0.532 h -3.747 c 0.061,-1.188 0.788,-1.945 1.843,-1.945 0.542,0 0.983,0.163 1.392,0.44 l 0.338,-0.615 c -0.492,-0.317 -1.085,-0.573 -1.843,-0.573 -1.474,0 -2.662,1.075 -2.662,2.907"
             style="fill:#5a5657;fill-opacity:1;fill-rule:nonzero;stroke:none"
             id="path66" />
        </g>
        <g
           id="g68"
           transform="translate(325.2508,353.6098)">
          <path
             d="m 0,0 h 0.932 v -2.232 l -0.03,-1.147 c 0.511,0.512 1.085,0.931 1.842,0.931 1.167,0 1.7,-0.757 1.7,-2.18 V -8.15 H 3.512 v 3.399 c 0,1.044 -0.317,1.484 -1.055,1.484 -0.573,0 -0.962,-0.285 -1.525,-0.849 V -8.15 H 0 Z"
             style="fill:#5a5657;fill-opacity:1;fill-rule:nonzero;stroke:none"
             id="path70" />
        </g>
        <path
           d="m 333.817,351.019 h 0.932 v -5.559 h -0.932 z m -0.174,1.751 c 0,0.378 0.277,0.604 0.645,0.604 0.369,0 0.645,-0.226 0.645,-0.604 0,-0.349 -0.276,-0.605 -0.645,-0.605 -0.368,0 -0.645,0.256 -0.645,0.605"
           style="fill:#5a5657;fill-opacity:1;fill-rule:nonzero;stroke:none"
           id="path72" />
        <g
           id="g74"
           transform="translate(338.5617,348.2338)">
          <path
             d="m 0,0 c 0,1.853 1.26,2.928 2.683,2.928 0.727,0 1.228,-0.307 1.628,-0.655 L 3.829,1.649 C 3.502,1.945 3.164,2.151 2.713,2.151 1.71,2.151 0.973,1.281 0.973,0 c 0,-1.279 0.696,-2.13 1.72,-2.13 0.511,0 0.962,0.236 1.31,0.554 L 4.403,-2.2 C 3.911,-2.651 3.276,-2.907 2.611,-2.907 1.136,-2.907 0,-1.843 0,0"
             style="fill:#5a5657;fill-opacity:1;fill-rule:nonzero;stroke:none"
             id="path76" />
        </g>
        <g
           id="g78"
           transform="translate(346.5444,346.5657)">
          <path
             d="m 0,0 v 7.044 h 0.931 v -7.106 c 0,-0.286 0.123,-0.399 0.266,-0.399 0.052,0 0.093,0 0.195,0.021 L 1.525,-1.157 C 1.392,-1.209 1.228,-1.239 0.983,-1.239 0.286,-1.239 0,-0.789 0,0"
             style="fill:#5a5657;fill-opacity:1;fill-rule:nonzero;stroke:none"
             id="path80" />
        </g>
        <g
           id="g82"
           transform="translate(355.2917,348.6846)">
          <path
             d="M 0,0 C 0,1.126 -0.512,1.73 -1.382,1.73 -2.171,1.73 -2.867,1.095 -2.979,0 Z m -3.901,-0.451 c 0,1.802 1.218,2.929 2.509,2.929 1.412,0 2.211,-1.024 2.211,-2.611 0,-0.204 -0.02,-0.399 -0.041,-0.532 h -3.747 c 0.062,-1.188 0.788,-1.945 1.843,-1.945 0.543,0 0.983,0.163 1.392,0.44 l 0.338,-0.615 c -0.492,-0.317 -1.085,-0.573 -1.843,-0.573 -1.474,0 -2.662,1.075 -2.662,2.907"
             style="fill:#5a5657;fill-opacity:1;fill-rule:nonzero;stroke:none"
             id="path84" />
        </g>
        <g
           id="g86"
           transform="translate(364.5568,352.9641)">
          <path
             d="M 0,0 H 0.952 V -3.768 H 0.983 L 4.116,0 H 5.181 L 2.836,-2.857 5.549,-7.504 H 4.485 L 2.243,-3.593 0.952,-5.13 V -7.504 H 0 Z"
             style="fill:#5a5657;fill-opacity:1;fill-rule:nonzero;stroke:none"
             id="path88" />
        </g>
        <g
           id="g90"
           transform="translate(377.1377,348.2338)">
          <path
             d="m 0,0 c 0,1.281 -0.655,2.151 -1.618,2.151 -0.962,0 -1.607,-0.87 -1.607,-2.151 0,-1.279 0.645,-2.13 1.607,-2.13 C -0.655,-2.13 0,-1.279 0,0 m -4.198,0 c 0,1.853 1.218,2.928 2.58,2.928 1.361,0 2.58,-1.075 2.58,-2.928 0,-1.843 -1.219,-2.907 -2.58,-2.907 -1.362,0 -2.58,1.064 -2.58,2.907"
             style="fill:#5a5657;fill-opacity:1;fill-rule:nonzero;stroke:none"
             id="path92" />
        </g>
        <g
           id="g94"
           transform="translate(381.9152,351.0186)">
          <path
             d="M 0,0 H 0.768 L 0.85,-1.013 h 0.031 c 0.389,0.707 0.952,1.156 1.576,1.156 0.246,0 0.421,-0.029 0.595,-0.122 L 2.878,-0.798 C 2.693,-0.726 2.56,-0.706 2.335,-0.706 1.874,-0.706 1.3,-1.033 0.932,-1.986 V -5.559 H 0 Z"
             style="fill:#5a5657;fill-opacity:1;fill-rule:nonzero;stroke:none"
             id="path96" />
        </g>
        <g
           id="g98"
           transform="translate(391.606,348.6846)">
          <path
             d="M 0,0 C 0,1.126 -0.512,1.73 -1.382,1.73 -2.171,1.73 -2.867,1.095 -2.979,0 Z m -3.901,-0.451 c 0,1.802 1.218,2.929 2.509,2.929 1.412,0 2.211,-1.024 2.211,-2.611 0,-0.204 -0.02,-0.399 -0.041,-0.532 h -3.747 c 0.062,-1.188 0.788,-1.945 1.843,-1.945 0.543,0 0.983,0.163 1.392,0.44 l 0.338,-0.615 c -0.492,-0.317 -1.085,-0.573 -1.843,-0.573 -1.474,0 -2.662,1.075 -2.662,2.907"
             style="fill:#5a5657;fill-opacity:1;fill-rule:nonzero;stroke:none"
             id="path100" />
        </g>
        <g
           id="g102"
           transform="translate(399.0554,346.8108)">
          <path
             d="M 0,0 V 1.557 C -1.874,1.331 -2.509,0.87 -2.509,0.154 c 0,-0.635 0.431,-0.891 0.983,-0.891 0.543,0 0.983,0.256 1.526,0.737 m -3.42,0.092 c 0,1.209 1.055,1.813 3.42,2.079 0,0.717 -0.236,1.403 -1.147,1.403 -0.645,0 -1.228,-0.298 -1.668,-0.594 l -0.369,0.644 c 0.512,0.328 1.3,0.727 2.191,0.727 1.351,0 1.924,-0.911 1.924,-2.282 v -3.42 H 0.164 L 0.082,-0.685 H 0.051 c -0.532,-0.441 -1.156,-0.799 -1.843,-0.799 -0.931,0 -1.628,0.573 -1.628,1.576"
             style="fill:#5a5657;fill-opacity:1;fill-rule:nonzero;stroke:none"
             id="path104" />
        </g>
        <g
           id="g106"
           transform="translate(408.8334,352.9641)">
          <path
             d="m 0,0 h 1.147 l 1.444,-4.013 c 0.173,-0.522 0.347,-1.045 0.532,-1.566 h 0.051 c 0.174,0.521 0.338,1.044 0.512,1.566 L 5.119,0 H 6.266 V -7.504 H 5.375 v 4.156 c 0,0.646 0.072,1.557 0.124,2.212 H 5.457 L 4.864,-2.846 3.44,-6.746 H 2.806 l -1.424,3.9 -0.593,1.71 H 0.748 C 0.789,-1.791 0.86,-2.702 0.86,-3.348 V -7.504 H 0 Z"
             style="fill:#5a5657;fill-opacity:1;fill-rule:nonzero;stroke:none"
             id="path108" />
        </g>
        <g
           id="g110"
           transform="translate(423.1965,348.2338)">
          <path
             d="m 0,0 c 0,1.281 -0.655,2.151 -1.618,2.151 -0.962,0 -1.607,-0.87 -1.607,-2.151 0,-1.279 0.645,-2.13 1.607,-2.13 C -0.655,-2.13 0,-1.279 0,0 m -4.198,0 c 0,1.853 1.218,2.928 2.58,2.928 1.362,0 2.58,-1.075 2.58,-2.928 0,-1.843 -1.218,-2.907 -2.58,-2.907 -1.362,0 -2.58,1.064 -2.58,2.907"
             style="fill:#5a5657;fill-opacity:1;fill-rule:nonzero;stroke:none"
             id="path112" />
        </g>
        <g
           id="g114"
           transform="translate(427.9435,347.1791)">
          <path
             d="M 0,0 V 3.083 H -0.83 V 3.789 L 0.041,3.84 0.153,5.396 H 0.932 V 3.84 H 2.436 V 3.083 H 0.932 V -0.02 c 0,-0.685 0.215,-1.075 0.859,-1.075 0.195,0 0.451,0.072 0.635,0.143 L 2.61,-1.648 C 2.293,-1.75 1.925,-1.852 1.587,-1.852 0.399,-1.852 0,-1.116 0,0"
             style="fill:#5a5657;fill-opacity:1;fill-rule:nonzero;stroke:none"
             id="path116" />
        </g>
        <g
           id="g118"
           transform="translate(437.614,348.2338)">
          <path
             d="m 0,0 c 0,1.281 -0.655,2.151 -1.618,2.151 -0.962,0 -1.608,-0.87 -1.608,-2.151 0,-1.279 0.646,-2.13 1.608,-2.13 C -0.655,-2.13 0,-1.279 0,0 m -4.198,0 c 0,1.853 1.218,2.928 2.58,2.928 1.361,0 2.58,-1.075 2.58,-2.928 0,-1.843 -1.219,-2.907 -2.58,-2.907 -1.362,0 -2.58,1.064 -2.58,2.907"
             style="fill:#5a5657;fill-opacity:1;fill-rule:nonzero;stroke:none"
             id="path120" />
        </g>
        <g
           id="g122"
           transform="translate(442.3915,351.0186)">
          <path
             d="M 0,0 H 0.768 L 0.85,-1.013 h 0.03 c 0.389,0.707 0.953,1.156 1.577,1.156 0.245,0 0.42,-0.029 0.594,-0.122 L 2.877,-0.798 C 2.692,-0.726 2.56,-0.706 2.334,-0.706 1.873,-0.706 1.3,-1.033 0.932,-1.986 V -5.559 H 0 Z"
             style="fill:#5a5657;fill-opacity:1;fill-rule:nonzero;stroke:none"
             id="path124" />
        </g>
        <g
           id="g126"
           transform="translate(448.0479,346.0946)">
          <path
             d="m 0,0 0.461,0.615 c 0.481,-0.39 0.983,-0.656 1.648,-0.656 0.737,0 1.096,0.389 1.096,0.87 0,0.563 -0.656,0.819 -1.27,1.054 -0.778,0.287 -1.659,0.666 -1.659,1.609 0,0.88 0.707,1.576 1.915,1.576 0.686,0 1.29,-0.286 1.73,-0.625 L 3.471,3.84 C 3.082,4.126 2.693,4.331 2.191,4.331 1.495,4.331 1.177,3.963 1.177,3.532 1.177,3 1.782,2.805 2.406,2.57 3.215,2.262 4.105,1.935 4.105,0.88 4.105,-0.02 3.389,-0.768 2.078,-0.768 1.29,-0.768 0.532,-0.44 0,0"
             style="fill:#5a5657;fill-opacity:1;fill-rule:nonzero;stroke:none"
             id="path128" />
        </g>
        <g
           id="g130"
           transform="translate(460.108,349.2071)">
          <path
             d="M 0,0 C 0,2.426 1.423,3.9 3.328,3.9 4.239,3.9 4.956,3.45 5.386,2.969 L 4.874,2.354 C 4.485,2.774 3.983,3.072 3.338,3.072 1.915,3.072 0.973,1.904 0.973,0.031 c 0,-1.894 0.901,-3.083 2.334,-3.083 0.717,0 1.259,0.319 1.741,0.84 L 5.57,-2.805 C 4.976,-3.492 4.239,-3.88 3.266,-3.88 1.403,-3.88 0,-2.437 0,0"
             style="fill:#5a5657;fill-opacity:1;fill-rule:nonzero;stroke:none"
             id="path132" />
        </g>
        <g
           id="g134"
           transform="translate(473.1181,348.2338)">
          <path
             d="m 0,0 c 0,1.281 -0.655,2.151 -1.618,2.151 -0.962,0 -1.607,-0.87 -1.607,-2.151 0,-1.279 0.645,-2.13 1.607,-2.13 C -0.655,-2.13 0,-1.279 0,0 m -4.198,0 c 0,1.853 1.218,2.928 2.58,2.928 1.362,0 2.58,-1.075 2.58,-2.928 0,-1.843 -1.218,-2.907 -2.58,-2.907 -1.362,0 -2.58,1.064 -2.58,2.907"
             style="fill:#5a5657;fill-opacity:1;fill-rule:nonzero;stroke:none"
             id="path136" />
        </g>
        <g
           id="g138"
           transform="translate(477.589,346.0336)">
          <path
             d="M 0,0 C 0,0.42 0.307,0.726 0.676,0.726 1.044,0.726 1.352,0.42 1.352,0 1.352,-0.421 1.044,-0.707 0.676,-0.707 0.307,-0.707 0,-0.421 0,0"
             style="fill:#5a5657;fill-opacity:1;fill-rule:nonzero;stroke:none"
             id="path140" />
        </g>
        <g
           id="g142"
           transform="translate(482.5793,344.0678)">
          <path
             d="M 0,0 C 0.634,0.276 1.013,0.768 1.024,1.392 0.983,1.381 0.952,1.381 0.911,1.381 c -0.359,0 -0.686,0.226 -0.686,0.655 0,0.4 0.327,0.656 0.706,0.656 0.492,0 0.789,-0.42 0.789,-1.105 0,-0.983 -0.573,-1.752 -1.495,-2.141 z"
             style="fill:#5a5657;fill-opacity:1;fill-rule:nonzero;stroke:none"
             id="path144" />
        </g>
        <g
           id="g146"
           transform="translate(492.8979,352.9641)">
          <path
             d="M 0,0 H 0.952 V -6.696 H 4.228 V -7.504 H 0 Z"
             style="fill:#5a5657;fill-opacity:1;fill-rule:nonzero;stroke:none"
             id="path148" />
        </g>
        <g
           id="g150"
           transform="translate(500.6546,347.1791)">
          <path
             d="M 0,0 V 3.083 H -0.83 V 3.789 L 0.041,3.84 0.153,5.396 H 0.931 V 3.84 H 2.436 V 3.083 H 0.931 V -0.02 c 0,-0.685 0.216,-1.075 0.86,-1.075 0.195,0 0.451,0.072 0.635,0.143 L 2.61,-1.648 C 2.293,-1.75 1.924,-1.852 1.587,-1.852 0.399,-1.852 0,-1.116 0,0"
             style="fill:#5a5657;fill-opacity:1;fill-rule:nonzero;stroke:none"
             id="path152" />
        </g>
        <g
           id="g154"
           transform="translate(510.0685,346.873)">
          <path
             d="m 0,0 v 2.918 c -0.471,0.419 -0.891,0.583 -1.352,0.583 -0.901,0 -1.607,-0.86 -1.607,-2.13 0,-1.341 0.553,-2.14 1.536,-2.14 0.511,0 0.962,0.257 1.423,0.769 m -3.921,1.361 c 0,1.802 1.136,2.928 2.405,2.928 0.656,0 1.075,-0.245 1.567,-0.655 L 0,4.596 v 2.141 h 0.932 v -8.15 H 0.174 l -0.093,0.655 h -0.02 c -0.44,-0.431 -1.023,-0.788 -1.689,-0.788 -1.392,0 -2.293,1.055 -2.293,2.907"
             style="fill:#5a5657;fill-opacity:1;fill-rule:nonzero;stroke:none"
             id="path156" />
        </g>
        <g
           id="g158"
           transform="translate(249.6374,364.8528)">
          <path
             d="M 0,0 H 50.195 V 7.447 H 7.448 v 6.479 h 30.147 v 7.397 H 7.448 v 9.079 h 42.747 v 7.447 L 0,37.849 Z"
             style="fill:#5a5657;fill-opacity:1;fill-rule:nonzero;stroke:none"
             id="path160" />
        </g>
        <g
           id="g162"
           transform="translate(309.7788,372.9632)">
          <path
             d="m 0,0 v 29.739 h -4.688 -2.76 V -8.11 h 2.76 7.245 l 14.43,17.557 z"
             style="fill:#5a5657;fill-opacity:1;fill-rule:nonzero;stroke:none"
             id="path164" />
        </g>
        <g
           id="g166"
           transform="translate(359.5288,414.8416)">
          <path
             d="m 0,0 -35.734,-27.704 7.991,-3.927 -19.45,-23.491 36.753,29.635 -8.741,3.919 z"
             style="fill:#008dd7;fill-opacity:1;fill-rule:nonzero;stroke:none"
             id="path168" />
        </g>
        <g
           id="g170"
           transform="translate(239.3409,378.0566)">
          <path
             d="m 0,0 c 0,11.982 -5.062,22.776 -13.154,30.382 l -0.89,-2.499 -2.72,-7.647 -5.698,-15.989 H -8.876 L -37.142,-41.445 C -16.257,-39.175 0,-21.489 0,0"
             style="fill:#008dd7;fill-opacity:1;fill-rule:nonzero;stroke:none"
             id="path172" />
        </g>
        <g
           id="g174"
           transform="translate(198.1398,368.128)">
          <path
             d="m 0,0 1.436,2.222 24.059,37.387 1.221,1.899 c -7.305,6.3 -16.81,10.118 -27.213,10.118 -10.378,0 -19.863,-3.8 -27.161,-10.074 l 1.17,-1.818 L -2.429,2.346 -0.993,0.124 H -15.547 L -4.53,-31.572 c 1.328,-0.127 2.672,-0.197 4.033,-0.197 1.376,0 2.736,0.071 4.078,0.201 L 14.553,0 Z"
             style="fill:#5a5657;fill-opacity:1;fill-rule:nonzero;stroke:none"
             id="path176" />
        </g>
        <g
           id="g178"
           transform="translate(178.407,382.4279)">
          <path
             d="m 0,0 -5.697,15.989 -2.721,7.647 -0.856,2.406 c -8.113,-7.607 -13.188,-18.414 -13.188,-30.413 0,-21.518 16.3,-39.224 37.226,-41.456 L -13.586,0 Z"
             style="fill:#008dd7;fill-opacity:1;fill-rule:nonzero;stroke:none"
             id="path180" />
        </g>
      </g>
    </g>
  </g>
</svg>
